<svg xmlns="http://www.w3.org/2000/svg" width="1000" height="1000" viewBox="0 0 1000 1000">
  <g>
    <path d="M500,84.741C270.659,84.741,84.742,270.659,84.742,500S270.659,915.259,500,915.259,915.258,729.341,915.258,500,729.34,84.741,500,84.741Zm0,804.164C285.566,888.9,111.108,714.433,111.105,500c0-103.712,40.495-201.328,114.026-274.864S396.275,111.1,499.987,111.1C714.43,111.1,888.9,285.561,888.9,500S714.437,888.905,500,888.905Z" fill="#626aa0"/>
    <g>
      <path d="M366.531,17.655l12.611-2.573,29.761,40.9L420.186,6.708l12.687-2.589,11.852,58.088-11.464,2.339-7.143-35.005L417.363,67.79l-11.694,2.386L382.705,38.4l7.142,35-11.464,2.339Z" fill="#626aa0"/>
      <path d="M477.7,1.251,490.1.855l29.955,58.352-12.863.41-7.305-13.735-29,.925-6.571,14.179-12.863.41Zm17.785,34-11.2-20.79-9.85,21.462Z" fill="#626aa0"/>
      <path d="M565.795,64.7,541.682,35.4l-3.007,26.19-11.622-1.335,6.761-58.888L545.436,2.7,542.5,28.272,571.083,5.646,585.5,7.3,552.561,32.959l27.723,33.407Z" fill="#626aa0"/>
      <path d="M640.242,69.989,637.29,81.15,588.35,68.207,603.507,10.9l47.432,12.545L647.987,34.6l-36.2-9.573L608.74,36.566l32.8,8.675L638.79,55.648l-32.8-8.676-3.451,13.046Z" fill="#626aa0"/>
      <path d="M669.456,29.731l23.849,9.884c13.762,5.7,20.211,14.792,15.881,25.24-4.39,10.592-17.541,10.545-29.393,6.139l16.468,34.011-13.33-5.524L666.856,66.562l-9.287,22.407L646.761,84.49Zm14.017,32.995c5.837,2.419,12.233,2.875,14.264-2.025,1.941-4.683-1.469-8.882-9.467-12.2l-11.888-4.927-5.734,13.834Z" fill="#626aa0"/>
      <path d="M706.2,88.678l10.846,6.331c-1.777,8,3.152,13.942,11.977,19.094,7.006,4.09,12.7,4.7,14.941.863,2.32-3.975-2.289-8.923-6.066-12.663-3.346-3.4-7.416-6.948-11.525-11.514-5.955-6.818-9.406-13.438-5.12-20.782,6.42-11.154,20.81-8.265,31.387-2.091,14.417,8.415,18.181,19.915,12.648,30.323l-10.712-6.251c3.27-7.3-2.388-12.775-7.777-15.921-3.571-2.084-11.425-5.495-14.335-.509-1.8,2.925-.344,5.85,3.787,10.068,2.886,2.949,4.755,4.853,9.318,9.413,4.345,4.162,15.617,13.632,8.854,25.219-5.977,10.24-16.69,10.489-31.309,1.957C705.125,111.716,701.3,99.547,706.2,88.678Z" fill="#626aa0"/>
      <path d="M804.518,140.855c12.261-12.449,31.233-12.593,46.682,2.623s15.538,34.134,3.278,46.582-31.177,12.647-46.627-2.569S792.258,153.3,804.518,140.855Zm41.013,40.393c7.553-7.669,8.393-20.527-1.666-30.433s-22.9-8.872-30.456-1.2-8.392,20.526,1.666,30.433S837.977,188.917,845.531,181.248Z" fill="#626aa0"/>
      <path d="M884.49,199.868l-9.537,7.175,19.413,25.805-8.6,6.472-19.413-25.806-20.008,15.052-7.034-9.35,47.372-35.637,28.932,38.459-9.226,6.94Z" fill="#626aa0"/>
      <path d="M943.566,268.223l5.232,11.929-33.447,37.919,50.551,1.08,5.231,11.927-65.561-1.9-4.981-11.357Z" fill="#626aa0"/>
      <path d="M974.191,343.481l3.534,11.154L921.214,372.54l-3.534-11.154Z" fill="#626aa0"/>
      <path d="M977.837,402l-46.655,10.113L928.7,400.68l46.655-10.113-4.594-21.193,11.282-2.446L993.68,420.6l-11.266,2.522Z" fill="#626aa0"/>
      <path d="M996.848,450.892l1.056,12.356-56.673,33.021-1.1-12.822,13.327-8.027-2.47-28.91L936.486,440.7l-1.1-12.822Zm-33.006,19.571,20.164-12.29L962.05,449.48Z" fill="#626aa0"/>
      <path d="M1000.273,507.97l-1.063,12.825-47.592,17.11,44.134,24.63-1.069,12.9-59.073-4.894.966-11.659,35.6,2.949-34.261-19.117.986-11.892,36.932-13.141-35.6-2.949.965-11.659Z" fill="#626aa0"/>
      <path d="M990.149,595.239l-2.355,11.46L929.73,594.767l2.355-11.46Z" fill="#626aa0"/>
      <path d="M983.955,626.035l-3.5,10.919-48.284,18.758L970.5,668l-3.6,11.216-56.453-18.1,3.644-11.365,46.829-18.816-36.992-11.862,3.573-11.142Z" fill="#626aa0"/>
      <path d="M939.28,737.379,933.59,747.6,881.8,718.772l5.69-10.222Z" fill="#626aa0"/>
      <path d="M924.142,764.841l-6.613,9.367-51.683,3.424,32.88,23.211-6.792,9.622-48.428-34.186,6.882-9.75,50.311-3.915-31.732-22.4,6.747-9.557Z" fill="#626aa0"/>
      <path d="M860.792,828.208l-8.675-8.194-22.173,23.475-7.825-7.392,22.173-23.475-18.2-17.192,8.034-8.5,43.093,40.705-33.046,34.984-8.391-7.926Z" fill="#626aa0"/>
      <path d="M811,846.578l21.431,26.809-9.14,7.306-18.849-23.579c-7.355-9.2-13.383-14.868-25.142-5.467s-7.5,16.479-.143,25.679L798,900.905l-9.2,7.355L767.37,881.452c-9.838-12.308-12.892-23.248,5.447-37.909C791.279,828.785,801.4,834.575,811,846.578Z" fill="#626aa0"/>
      <path d="M754.572,883.207,743.7,889.5c-6.066-5.5-13.672-4.163-22.515.954-7.021,4.063-10.372,8.7-8.145,12.553,2.3,3.983,8.884,2.428,14,1,4.608-1.225,9.706-3,15.707-4.313,8.87-1.8,16.331-1.521,20.589,5.838,6.512,11.1-3.121,22.17-13.719,28.3-14.446,8.36-26.3,5.938-32.6-4.021l10.734-6.211c4.727,6.456,12.279,4.248,17.68,1.123,3.578-2.07,10.428-7.206,7.537-12.2-1.651-3.009-4.912-3.2-10.621-1.694-3.99,1.048-6.569,1.729-12.79,3.437-5.766,1.714-19.571,6.82-26.29-4.791-5.938-10.261-.852-19.691,13.8-28.168C735.089,870.872,747.554,873.572,754.572,883.207Z" fill="#626aa0"/>
      <path d="M642.678,929.206l-4.252-10.731,47.059-18.648,21.837,55.108-45.609,18.073-4.252-10.731,34.8-13.792-4.4-11.094-31.542,12.5-3.964-10.006,31.541-12.5-4.971-12.545Z" fill="#626aa0"/>
      <path d="M629,921.648l13.649,57.682-26.868,6.358c-19.733,4.669-33.4-.271-38.361-21.218-4.849-20.492,3.215-31.457,24.029-36.3Zm-23.265,16.165c-12.978,3.071-19.75,9-16.284,23.649,3.269,13.814,10.888,17.221,25.156,13.844l14.269-3.376-8.872-37.493Z" fill="#626aa0"/>
      <path d="M523.983,969.748c-.359,18.015-13.96,31.007-35.328,30.58-18.483-.368-30.737-11.847-32.348-24.987l12.323.246c1.642,7.6,9.469,14.154,20.856,14.382,13.569.27,21.859-8.536,22.091-20.156.23-11.542-7.781-20.6-21.429-20.869-11.464-.229-19.315,6.169-21.259,13.619l-12.321-.245c2.217-13.375,14.837-24.124,33.709-23.747C511.88,939,524.327,952.513,523.983,969.748Z" fill="#626aa0"/>
      <path d="M383.8,986.392,394.27,928.05l11.592,2.08-4.354,24.258,31.858,5.719,4.354-24.259,11.515,2.067-10.472,58.343-11.515-2.067,4.148-23.107-31.859-5.718-4.147,23.107Z" fill="#626aa0"/>
      <path d="M374.385,953.93c-5.9,16.447-23.058,24.546-43.471,17.225s-28.438-24.455-22.538-40.9,22.985-24.573,43.4-17.251S380.284,937.483,374.385,953.93ZM320.2,934.493c-3.635,10.133,1,22.156,14.293,26.922s24.512-1.566,28.146-11.7-1-22.155-14.293-26.922S323.832,924.361,320.2,934.493Z" fill="#626aa0"/>
      <path d="M297.641,924.731c-8.9,15.664-27.051,20.6-45.631,10.04-16.071-9.135-21.371-25.067-16.523-37.384l10.714,6.09c-2.179,7.465,1.577,16.956,11.477,22.584,11.8,6.706,23.284,2.917,29.027-7.187,5.7-10.036,2.978-21.813-8.888-28.558-9.969-5.666-19.919-3.786-25.179,1.837l-10.714-6.09c8.325-10.7,24.541-14.132,40.951-4.8C301.658,891.935,306.159,909.745,297.641,924.731Z" fill="#626aa0"/>
      <path d="M229.054,885.141c-11.094,13.5-29.978,15.343-46.729,1.573s-18.536-32.6-7.441-46.1,29.918-15.393,46.669-1.624S240.149,871.643,229.054,885.141Zm-44.469-36.553c-6.835,8.316-6.519,21.2,4.388,30.161s23.6,6.782,30.44-1.533,6.519-21.2-4.387-30.162S191.42,840.273,184.585,848.588Z" fill="#626aa0"/>
      <path d="M146.559,782.253l8.564-7.741,32.273,35.7-43.974,39.754-7.794-8.622,35.411-32.012Z" fill="#626aa0"/>
      <path d="M89,783.489,82.08,773.2l33.5-56.393,7.185,10.678-7.751,13.489,16.2,24.073,15.5-1.971,7.186,10.678Zm19.348-33.141L96.694,770.886l23.416-3.065Z" fill="#626aa0"/>
      <path d="M59.935,710.446l42.8-21.142,5.182,10.489-42.8,21.143,9.6,19.44-10.35,5.113-24.32-49.231,10.315-5.183Z" fill="#626aa0"/>
      <path d="M63.309,617.777l10.96-3.624,15.894,48.058L33.884,680.824l-15.4-46.578,10.959-3.625L41.2,666.166l11.33-3.747L41.871,630.206l10.219-3.379,10.653,32.212L75.554,654.8Z" fill="#626aa0"/>
      <path d="M44.809,566.825,43.78,554.309c7.57-3.127,9.618-10.575,8.781-20.759-.665-8.086-3.425-13.1-7.857-12.738-4.587.377-6,6.989-6.9,12.229-.866,4.69-1.442,10.059-2.829,16.043-2.173,8.788-5.62,15.412-14.094,16.109-12.821,1.132-18.7-12.316-19.705-24.522-1.369-16.637,5.9-26.313,17.6-27.745l1.017,12.361c-7.86,1.507-9.1,9.28-8.588,15.5.339,4.12,2.047,12.511,7.8,12.038,3.427-.2,4.991-3.072,6.08-8.875.762-4.054,1.251-6.677,2.372-13.031.92-5.946,2.218-20.611,15.59-21.71,11.817-.972,18.163,7.663,19.55,24.534C64.3,554.5,56.524,564.61,44.809,566.825Z" fill="#626aa0"/>
      <path d="M.774,497l.2-11.7,59.27,1.032-.2,11.7Z" fill="#626aa0"/>
      <path d="M1.182,465.682,2.594,454.3l43.954-27.4L6.605,421.947l1.449-11.689,58.831,7.294L65.416,429.4,22.9,456.586l38.549,4.779-1.44,11.612Z" fill="#626aa0"/>
      <path d="M40.434,399.3C23.152,394.2,14.2,377.662,20.246,357.163c5.225-17.73,19.526-26.526,32.624-24.617l-3.483,11.821c-7.765-.419-16.148,5.4-19.367,16.328-3.837,13.017,2.473,23.334,13.621,26.619,11.072,3.263,21.916-2.079,25.775-15.171,3.241-11-.861-20.257-7.535-24.094l3.483-11.82C77.681,341.891,84.724,356.9,79.388,375,73.281,395.724,56.968,404.17,40.434,399.3Z" fill="#626aa0"/>
      <path d="M102.147,284.92l10.445,4.919-21.569,45.8L37.388,310.382l20.9-44.39,10.445,4.919L52.784,304.785l10.8,5.085,14.457-30.7,9.739,4.586-14.457,30.7,12.209,5.75Z" fill="#626aa0"/>
      <path d="M132.055,236.956a217.015,217.015,0,0,0,6.208-32.817c1-8.923,1.378-15.95-2.623-19.191-4.121-3.338-10.187-1.427-17.012,7-7.562,9.334-7.972,16.53-1.729,21.588a25.646,25.646,0,0,0,5.388,3.262l-7.512,9.273a23.077,23.077,0,0,1-5.511-3.36c-9.575-7.759-12.079-20.529,1.621-37.438,12.177-15.031,23.673-16.458,31.734-9.928,5.637,4.566,7.765,11.109,5.871,25.838a166.629,166.629,0,0,1-4.5,21.048l24.06-29.7,9.031,7.317-35.993,44.426Z" fill="#626aa0"/>
      <path d="M162.548,172.089c-11.727-12.954-13.5-29.445,1.764-43.267,15.21-13.768,31.327-10.26,43.054,2.694s13.619,29.34-1.59,43.109C190.509,188.446,174.275,185.043,162.548,172.089Zm35.913-32.511c-7.906-8.733-18.211-11.4-27.348-3.127s-7.564,18.843.341,27.576,18.268,11.346,27.406,3.074S206.366,148.311,198.461,139.578Z" fill="#626aa0"/>
      <path d="M277.673,105.821l6.339,9.647-50.519,33.194-6.339-9.647,20.533-13.492L227.814,95.277l-17.927,11.779-6.338-9.648,27.508-18.075,26.213,39.894Z" fill="#626aa0"/>
      <path d="M284.848,98.49l11.1-4.975c2.289,2.821,9.574,2.292,16.336-.737,11.674-5.231,15.21-14.507,11.254-24.1-1.7,5.549-8.36,11.865-16.9,15.692-13.738,6.155-26.981,3.114-32.02-8.133-5.325-11.888,1.812-24.573,17.4-31.557,17.155-7.686,32.81-3.075,40.623,14.364,7.782,17.369,1.5,34.454-16.5,42.523C301.832,107.975,289.892,106.316,284.848,98.49Zm32.425-41.707c-2.774-6.192-11.244-7.355-20.853-3.05S282.538,64.909,285.313,71.1c2.806,6.263,10.809,7.72,20.419,3.415C315.27,70.245,320.08,63.048,317.273,56.783Z" fill="#626aa0"/>
    </g>
    <path d="M500,126.534c-206.268,0-373.466,167.2-373.466,373.466S293.732,873.466,500,873.466,873.466,706.268,873.466,500,706.268,126.534,500,126.534ZM728.847,382.949C728.847,447.6,683.547,500,627.672,500c27.929,0,53.215,13.091,71.531,34.27s29.644,50.446,29.644,82.781c0,64.639-45.3,117.02-101.175,117.02H271.137V617.051C271.137,552.4,316.453,500,372.343,500c-55.89,0-101.206-52.4-101.206-117.051s45.316-117.02,101.206-117.02h356.5Z" fill="#626aa0"/>
  </g>
</svg>
